<svg version="1.1" id="Layer_1" xmlns="http://www.w3.org/2000/svg" xmlns:xlink="http://www.w3.org/1999/xlink" x="0px" y="0px"
	 width="100%" viewBox="0 0 2348 2348" enable-background="new 0 0 2348 2348" xml:space="preserve">
<path fill="#F7F7F7" opacity="1.000000" stroke="none" 
	d="
M1300.000000,2350.000000 
	C866.666687,2350.000000 434.333344,2350.000000 2.000000,2350.000000 
	C2.000000,1567.333374 2.000000,784.666687 2.000000,2.000000 
	C784.666687,2.000000 1567.333374,2.000000 2350.000000,2.000000 
	C2350.000000,784.666687 2350.000000,1567.333374 2350.000000,2350.000000 
	C2000.333374,2350.000000 1650.666626,2350.000000 1300.000000,2350.000000 
M1735.842651,859.000000 
	C1735.842651,825.850159 1735.842651,792.700256 1735.842651,758.025085 
	C1723.043823,759.922119 1711.709717,760.709961 1700.829224,763.360596 
	C1634.178101,779.598083 1588.469971,838.013123 1588.356934,906.889954 
	C1588.221802,989.193970 1588.324097,1071.498413 1588.323975,1153.802612 
	C1588.323730,1296.418823 1588.323975,1439.035156 1588.323975,1581.651367 
	C1588.323975,1585.505127 1588.323975,1589.359009 1588.323975,1593.099731 
	C1612.428833,1594.492920 1640.401978,1586.128052 1656.926880,1576.830688 
	C1708.373291,1547.885498 1735.516235,1503.748291 1735.661133,1444.793091 
	C1736.139404,1250.196411 1735.842163,1055.597900 1735.842651,859.000000 
M619.404907,854.999817 
	C619.404968,1049.645752 619.403503,1244.291748 619.413818,1438.937744 
	C619.414062,1443.601318 619.439758,1448.269287 619.633423,1452.927856 
	C622.225769,1515.282471 663.549683,1568.944214 723.154541,1587.161743 
	C736.820679,1591.338501 750.804749,1593.791382 765.833801,1593.437622 
	C766.019226,1589.998535 766.313721,1587.083984 766.313965,1584.169434 
	C766.334351,1357.860229 766.414612,1131.551025 766.277039,905.241882 
	C766.239014,842.641541 726.919006,787.936768 667.847534,767.245178 
	C652.424500,761.842712 636.619568,758.849548 619.404846,759.560181 
	C619.404846,791.123596 619.404846,822.061646 619.404907,854.999817 
M1187.000122,908.567200 
	C1173.336548,908.567200 1159.672852,908.521912 1146.009521,908.579773 
	C1132.160645,908.638367 1118.294312,908.319031 1104.618164,908.778870 
	C1102.466675,934.761841 1103.483032,1436.062500 1105.564087,1443.289795 
	C1153.764282,1443.289795 1201.937378,1443.289795 1250.419922,1443.289795 
	C1250.419922,1264.948120 1250.419922,1087.167358 1250.419922,908.567261 
	C1229.528198,908.567261 1209.264160,908.567261 1187.000122,908.567200 
z"/>
<path fill="#F60209" opacity="1.000000" stroke="none" 
	d="
M1735.842651,860.000000 
	C1735.842163,1055.597900 1736.139404,1250.196411 1735.661133,1444.793091 
	C1735.516235,1503.748291 1708.373291,1547.885498 1656.926880,1576.830688 
	C1640.401978,1586.128052 1612.428833,1594.492920 1588.323975,1593.099731 
	C1588.323975,1589.359009 1588.323975,1585.505127 1588.323975,1581.651367 
	C1588.323975,1439.035156 1588.323730,1296.418823 1588.323975,1153.802612 
	C1588.324097,1071.498413 1588.221802,989.193970 1588.356934,906.889954 
	C1588.469971,838.013123 1634.178101,779.598083 1700.829224,763.360596 
	C1711.709717,760.709961 1723.043823,759.922119 1735.842651,758.025085 
	C1735.842651,792.700256 1735.842651,825.850159 1735.842651,860.000000 
z"/>
<path fill="#F60007" opacity="1.000000" stroke="none" 
	d="
M619.404907,853.999756 
	C619.404846,822.061646 619.404846,791.123596 619.404846,759.560181 
	C636.619568,758.849548 652.424500,761.842712 667.847534,767.245178 
	C726.919006,787.936768 766.239014,842.641541 766.277039,905.241882 
	C766.414612,1131.551025 766.334351,1357.860229 766.313965,1584.169434 
	C766.313721,1587.083984 766.019226,1589.998535 765.833801,1593.437622 
	C750.804749,1593.791382 736.820679,1591.338501 723.154541,1587.161743 
	C663.549683,1568.944214 622.225769,1515.282471 619.633423,1452.927856 
	C619.439758,1448.269287 619.414062,1443.601318 619.413818,1438.937744 
	C619.403503,1244.291748 619.404968,1049.645752 619.404907,853.999756 
z"/>
<path fill="#F6030A" opacity="1.000000" stroke="none" 
	d="
M1188.000244,908.567261 
	C1209.264160,908.567261 1229.528198,908.567261 1250.419922,908.567261 
	C1250.419922,1087.167358 1250.419922,1264.948120 1250.419922,1443.289795 
	C1201.937378,1443.289795 1153.764282,1443.289795 1105.564087,1443.289795 
	C1103.483032,1436.062500 1102.466675,934.761841 1104.618164,908.778870 
	C1118.294312,908.319031 1132.160645,908.638367 1146.009521,908.579773 
	C1159.672852,908.521912 1173.336548,908.567200 1188.000244,908.567261 
z"/>
</svg>